<svg width="18" height="23" viewBox="0 0 18 23" fill="none" xmlns="http://www.w3.org/2000/svg">
<path d="M9 11.5C9.61875 11.5 10.1486 11.2746 10.5896 10.8238C11.0299 10.3738 11.25 9.8325 11.25 9.2C11.25 8.5675 11.0299 8.02585 10.5896 7.57505C10.1486 7.12502 9.61875 6.9 9 6.9C8.38125 6.9 7.85175 7.12502 7.4115 7.57505C6.9705 8.02585 6.75 8.5675 6.75 9.2C6.75 9.8325 6.9705 10.3738 7.4115 10.8238C7.85175 11.2746 8.38125 11.5 9 11.5ZM9 23C5.98125 20.3742 3.72675 17.935 2.2365 15.6825C0.7455 13.4309 0 11.3467 0 9.43C0 6.555 0.904875 4.26458 2.71463 2.55875C4.52363 0.852917 6.61875 0 9 0C11.3812 0 13.4764 0.852917 15.2854 2.55875C17.0951 4.26458 18 6.555 18 9.43C18 11.3467 17.2549 13.4309 15.7646 15.6825C14.2736 17.935 12.0188 20.3742 9 23Z" fill="#D1FDFF"/>
</svg>
