<svg width="20" height="17" viewBox="0 0 20 17" fill="none" xmlns="http://www.w3.org/2000/svg">
<path d="M18 0.5H2C0.9 0.5 0 1.4 0 2.5V14.5C0 15.6 0.9 16.5 2 16.5H18C19.1 16.5 20 15.6 20 14.5V2.5C20 1.4 19.1 0.5 18 0.5ZM17.6 4.75L11.06 8.84C10.41 9.25 9.59 9.25 8.94 8.84L2.4 4.75C2.29973 4.69371 2.21192 4.61766 2.14189 4.52645C2.07186 4.43525 2.02106 4.33078 1.99258 4.21937C1.96409 4.10796 1.9585 3.99194 1.97616 3.87831C1.99381 3.76468 2.03434 3.65581 2.09528 3.5583C2.15623 3.46079 2.23632 3.37666 2.33073 3.311C2.42513 3.24533 2.53187 3.19951 2.6445 3.1763C2.75712 3.15309 2.87328 3.15297 2.98595 3.17595C3.09863 3.19893 3.20546 3.24453 3.3 3.31L10 7.5L16.7 3.31C16.7945 3.24453 16.9014 3.19893 17.014 3.17595C17.1267 3.15297 17.2429 3.15309 17.3555 3.1763C17.4681 3.19951 17.5749 3.24533 17.6693 3.311C17.7637 3.37666 17.8438 3.46079 17.9047 3.5583C17.9657 3.65581 18.0062 3.76468 18.0238 3.87831C18.0415 3.99194 18.0359 4.10796 18.0074 4.21937C17.9789 4.33078 17.9281 4.43525 17.8581 4.52645C17.7881 4.61766 17.7003 4.69371 17.6 4.75Z" fill="#D1FDFF"/>
</svg>
