<svg width="22" height="22" viewBox="0 0 22 22" fill="none" xmlns="http://www.w3.org/2000/svg">
<path d="M10.8225 0C4.8425 0 0 4.85333 0 10.8333C0 16.8133 4.8425 21.6667 10.8225 21.6667C16.8133 21.6667 21.6667 16.8133 21.6667 10.8333C21.6667 4.85333 16.8133 0 10.8225 0ZM15.1667 15.1667C15.0664 15.2671 14.9474 15.3468 14.8163 15.4011C14.6853 15.4555 14.5448 15.4835 14.4029 15.4835C14.261 15.4835 14.1205 15.4555 13.9895 15.4011C13.8584 15.3468 13.7394 15.2671 13.6392 15.1667L10.075 11.6025C9.97264 11.5022 9.8912 11.3825 9.83541 11.2505C9.77963 11.1185 9.75059 10.9767 9.75 10.8333V6.5C9.75 5.90417 10.2375 5.41667 10.8333 5.41667C11.4292 5.41667 11.9167 5.90417 11.9167 6.5V10.3892L15.1667 13.6392C15.5892 14.0617 15.5892 14.7442 15.1667 15.1667Z" fill="#D1FDFF"/>
</svg>
