<svg width="30" height="29" viewBox="0 0 30 29" fill="none" xmlns="http://www.w3.org/2000/svg">
<path d="M0.00602007 29L2.03402 21.7964C0.697727 19.582 -0.00433595 17.0636 2.01484e-05 14.5C2.01484e-05 6.49165 6.71552 0 15 0C23.2845 0 30 6.49165 30 14.5C30 22.5083 23.2845 29 15 29C12.3492 29.0041 9.745 28.326 7.45502 27.0352L0.00602007 29ZM9.58651 7.69659C9.39281 7.70822 9.20353 7.75754 9.03001 7.84159C8.8673 7.93067 8.71876 8.04202 8.58901 8.17219C8.40901 8.33604 8.30702 8.47814 8.19752 8.61589C7.64313 9.31334 7.34493 10.1694 7.35002 11.049C7.35302 11.7595 7.54502 12.4511 7.84502 13.0978C8.45852 14.4057 9.46801 15.7905 10.8015 17.0737C11.1225 17.3826 11.436 17.6929 11.7735 17.9814C13.4286 19.3901 15.4009 20.4059 17.5335 20.9481L18.387 21.0743C18.6645 21.0888 18.942 21.0685 19.221 21.0554C19.6579 21.0336 20.0844 20.9193 20.4705 20.7205C20.6669 20.6227 20.8586 20.5162 21.045 20.4015C21.045 20.4015 21.1095 20.3609 21.2325 20.271C21.435 20.126 21.5595 20.023 21.7275 19.8534C21.852 19.7287 21.96 19.5822 22.0425 19.4155C22.1595 19.1791 22.2765 18.7282 22.3245 18.3526C22.3605 18.0655 22.35 17.9089 22.3455 17.8118C22.3395 17.6566 22.206 17.4957 22.0605 17.4275L21.1875 17.0491C21.1875 17.0491 19.8825 16.4995 19.086 16.1486C19.002 16.1133 18.912 16.0931 18.8205 16.0892C18.7179 16.079 18.6142 16.0902 18.5164 16.1219C18.4186 16.1537 18.329 16.2053 18.2535 16.2733V16.2704C18.246 16.2704 18.1455 16.3531 17.061 17.6233C16.9988 17.7041 16.913 17.7652 16.8147 17.7988C16.7164 17.8324 16.61 17.8369 16.509 17.8118C16.4113 17.7865 16.3155 17.7545 16.2225 17.7161C16.0365 17.6407 15.972 17.6117 15.8445 17.558L15.837 17.5551C14.9789 17.193 14.1843 16.7038 13.482 16.1051C13.293 15.9456 13.1175 15.7716 12.9375 15.6034C12.3474 15.0571 11.8331 14.4391 11.4075 13.7648L11.319 13.6271C11.2554 13.5345 11.2041 13.4347 11.166 13.3298C11.109 13.1167 11.2575 12.9456 11.2575 12.9456C11.2575 12.9456 11.622 12.5599 11.7915 12.3511C11.9326 12.1776 12.0643 11.997 12.186 11.8102C12.363 11.5347 12.4185 11.252 12.3255 11.033C11.9055 10.0412 11.4705 9.05379 11.0235 8.07359C10.935 7.87929 10.6725 7.74009 10.434 7.71254C10.353 7.70384 10.272 7.69514 10.191 7.68934C9.98957 7.67967 9.78772 7.68306 9.58651 7.69659Z" fill="#D1FDFF" fill-opacity="0.5"/>
</svg>
